<?xml version="1.0" encoding="UTF-8"?>
<svg id="Layer_1" xmlns="http://www.w3.org/2000/svg" version="1.1" viewBox="0 0 2060.48 503.03">
  <!-- Generator: Adobe Illustrator 29.8.2, SVG Export Plug-In . SVG Version: 2.1.1 Build 3)  -->
  <defs>
    <style>
      .st0 {
        fill: #00ff5f;
      }

      .st1 {
        fill: #fff;
      }
    </style>
  </defs>
  <path class="st0" d="M14.49,0h144.8c7.99,0,14.47,5.82,14.47,13.01v271.7c0,13.85-20.86,18.11-27.51,5.62L1.44,18.63C-3.16,9.99,3.84,0,14.49,0Z"/>
  <path class="st1" d="M159.26,502.38H14.47c-7.99,0-14.47-5.82-14.47-13.01V217.67c0-13.85,20.86-18.11,27.51-5.62l144.8,271.7c4.6,8.63-2.4,18.63-13.05,18.63Z"/>
  <rect class="st0" x="241.7" width="107.13" height="502.38" rx="14.47" ry="14.47"/>
  <rect class="st0" x="1102.08" y="-455.38" width="107.13" height="1809.68" rx="14.47" ry="14.47" transform="translate(1605.1 -706.18) rotate(90)"/>
  <g>
    <path class="st1" d="M410.46,221.94c0-80.84,48.01-122.48,119.54-122.48s119.54,41.15,119.54,122.48v125.91h-58.3v-125.91c0-46.05-24.49-68.1-61.24-68.1s-61.24,22.05-61.24,68.1v125.91h-58.3v-125.91Z"/>
    <path class="st1" d="M675.5,226.84c0-73.49,53.89-127.38,130.32-127.38s129.34,53.89,129.34,127.38v20.58h-198.42c7.84,35.27,34.79,53.89,69.08,53.89,25.97,0,45.07-7.35,57.32-23.03h62.22c-18.13,46.05-62.22,75.94-119.54,75.94-76.43,0-130.32-53.89-130.32-127.38ZM873.43,200.87c-9.31-32.34-35.76-48.5-67.61-48.5s-58.3,16.66-67.61,48.5h135.22Z"/>
    <path class="st1" d="M951.81,276.32h58.79c.49,16.17,14.7,26.95,43.11,26.95,29.88,0,42.62-12.25,42.62-26.95,0-18.62-21.56-21.06-47.52-24.49-37.23-4.9-92.11-11.27-92.11-70.55,0-49.48,37.72-81.82,96.03-81.82s95.54,33.31,97,75.94h-57.81c-1.47-14.7-15.19-24.99-38.21-24.99-25.48,0-38.22,12.25-38.22,26.46,0,18.62,22.05,21.56,48.01,24.99,32.34,4.41,91.62,10.78,91.62,71.04,0,49-39.68,81.33-101.41,81.33s-100.44-32.83-101.9-77.9Z"/>
    <path class="st1" d="M1181.58,254.76V20.09h58.3v85.73h124.93v52.92h-124.93v96.02c0,32.34,16.66,45.08,40.66,45.08s40.66-12.25,40.66-45.08v-6.37h58.3v6.37c0,67.13-40.17,99.46-98.96,99.46s-98.97-32.33-98.97-99.46Z"/>
  </g>
  <path class="st0" d="M1412.82,0h58.3v347.85h-58.3V0Z"/>
  <path class="st0" d="M1505.4,229.29c0-76.92,53.89-129.83,130.81-129.83s128.85,51.44,128.85,129.34v119.05h-53.4v-47.52c-14.7,35.76-47.53,53.89-85.74,53.89-58.79,0-120.52-42.14-120.52-124.93ZM1706.77,226.84c0-42.62-28.42-73-71.04-73s-71.53,30.37-71.53,73,28.91,73,71.53,73,71.04-30.38,71.04-73Z"/>
  <path class="st0" d="M1800.82,224.88V0h58.3v141.1c17.15-26.94,46.05-41.64,80.84-41.64,58.79,0,120.52,42.14,120.52,124.93,0,76.91-53.89,129.83-130.81,129.83s-128.85-50.95-128.85-129.34ZM2001.69,226.84c0-42.62-28.91-73-71.53-73s-71.04,30.37-71.04,73,28.42,73,71.04,73,71.53-30.38,71.53-73Z"/>
</svg>